<?xml version="1.0" encoding="utf-8"?>
<!-- Generator: Adobe Illustrator 19.0.0, SVG Export Plug-In . SVG Version: 6.00 Build 0)  -->
<svg version="1.1" id="Capa_1" xmlns="http://www.w3.org/2000/svg" xmlns:xlink="http://www.w3.org/1999/xlink" x="0px" y="0px"
	 viewBox="-137 15 684.7 532" style="enable-background:new -137 15 684.7 532;" xml:space="preserve">
<style type="text/css">
	.st0{enable-background:new    ;}
	.st1{fill:#1498D5;}
	.st2{font-family:'BodoniMT';}
	.st3{font-size:131.3022px;}
	.st4{fill:#FFFFFF;}
	.st5{fill:none;stroke:#FFFFFF;stroke-width:20;stroke-miterlimit:10;}
	.st6{font-family:'BrushScriptStd';}
	.st7{font-size:252.8783px;}
</style>
<g id="Capa_1_1_">
	<text transform="matrix(1 0 0 1 -136 525.7691)" class="st0"><tspan x="0" y="0" class="st1 st2 st3">MUSIC</tspan><tspan x="415.6" y="0" class="st4 st2 st3">ALY</tspan></text>
</g>
<g id="Capa_2">
	<path class="st5" d="M171.1,393.8l-5.2,2.6c-18,8.9-40,1.5-48.9-16.5l-0.2-0.4c-10.1-20.4-29.6-34.6-52.2-37.8
		c-6-0.9-12-1.7-17.3-2.5c-10.9-1.6-18.6-11.5-17.4-22.5l0.1-1c3.7-32.8-7.3-65.6-29.9-89.6l-2.1-2.2c-6.2-6.6-6.5-16.8-0.7-23.7
		l6.6-7.9c19.6-23.4,28.6-53.8,25.1-84l-0.1-0.7c-1.2-10.5,4.7-20.4,14.4-24.2c8.2-3.2,18.3-7.1,27.2-10.5
		c15-5.8,28.2-15.6,38.1-28.4l6.7-8.6C126,22.2,143.8,16,160.7,20.3l10.8,2.7l5.7,1.8c14.2,4.4,29.4,4.4,43.6,0l5.7-1.8l10.8-2.7
		c16.9-4.3,34.7,1.9,45.4,15.6l6.7,8.6c9.9,12.7,23,22.6,38.1,28.4l28,10.8c9.3,3.6,15,13,13.8,22.9l-0.1,0.8
		c-3.6,30.7,5.5,61.6,25.3,85.3c2.2,2.7,4.4,5.2,6.3,7.6c5.8,7,5.5,17.1-0.7,23.7l-2.1,2.2c-22.7,24-33.6,56.8-29.9,89.6l0.1,1
		c1.2,11-6.5,20.9-17.4,22.5c-5.4,0.8-11.3,1.6-17.3,2.5c-22.6,3.2-42.1,17.3-52.2,37.8l-0.2,0.4c-8.9,18-30.9,25.4-48.9,16.5
		l-5.2-2.6l-4.4-1.4c-15.3-4.9-31.7-4.9-47,0L171.1,393.8z"/>
	<text transform="matrix(1 0 0 1 112.2125 248.7075)" class="st1 st6 st7">m</text>
</g>
</svg>
