<?xml version="1.0" encoding="utf-8"?>
<!-- Generator: Adobe Illustrator 19.0.0, SVG Export Plug-In . SVG Version: 6.00 Build 0)  -->
<svg version="1.1" id="Capa_1" xmlns="http://www.w3.org/2000/svg" xmlns:xlink="http://www.w3.org/1999/xlink" x="0px" y="0px"
	 viewBox="0 0 235 233.9" style="enable-background:new 0 0 235 233.9;" xml:space="preserve">
<style type="text/css">
	.st0{fill:#FFFFFF;}
	.st1{fill:#1498D5;}
</style>
<g>
	<path class="st0" d="M213.2,233.9c5-5,9.6-9.7,15-15.2c-21.9-21.8-44.1-43.8-66.2-65.8c32.4-39.5,24.2-93.2-9.9-122.7
		c-31.7-27.4-82-27.5-113.2,0.4c-33.7,30-39.9,78.5-15.2,114.9c25.2,37,79.4,52.1,123.2,21.7c11,11,22,22.2,33,33.3
		C191,211.6,202.1,222.8,213.2,233.9z"/>
	<path class="st1" d="M213.2,233.9c-11-11.1-22.2-22.3-33.3-33.5c-11-11.1-22-22.2-33-33.3c-43.9,30.5-98,15.3-123.2-21.7
		C-1.1,109.1,5.1,60.6,38.8,30.5C70.1,2.7,120.3,2.8,152,30.2c34.2,29.5,42.3,83.2,9.9,122.7c22.1,22,44.3,44,66.2,65.8
		C222.8,224.2,218.1,228.9,213.2,233.9z M95.5,19.7c-42.4,0-76.5,34-76.7,76.5c-0.2,42.6,34.1,76.9,76.7,76.9
		c42.4,0,76.5-34,76.6-76.5C172.4,54,138.1,19.7,95.5,19.7z"/>
	<path class="st0" d="M95.5,19.7c42.6,0,76.9,34.3,76.7,76.9c-0.2,42.5-34.2,76.5-76.6,76.5c-42.6,0-76.9-34.3-76.7-76.9
		C19,53.7,53.1,19.7,95.5,19.7z"/>
</g>
</svg>
